<?xml version="1.0" encoding="utf-8"?>
<!-- Generator: Adobe Illustrator 16.0.4, SVG Export Plug-In . SVG Version: 6.00 Build 0)  -->
<!DOCTYPE svg PUBLIC "-//W3C//DTD SVG 1.1//EN" "http://www.w3.org/Graphics/SVG/1.1/DTD/svg11.dtd">
<svg version="1.1" id="Layer_1" xmlns="http://www.w3.org/2000/svg" xmlns:xlink="http://www.w3.org/1999/xlink" x="0px" y="0px"
	 width="59.942px" height="60px" viewBox="0 0 59.942 60" enable-background="new 0 0 59.942 60" xml:space="preserve">
<g>
	<path fill="#EA6245" stroke="#405767" stroke-width="2.5" stroke-miterlimit="10" d="M50.601,11.452
		c-4.992-5.05-11.921-8.181-19.584-8.181c-15.21,0-27.541,12.331-27.541,27.541c0,7.269,2.82,13.875,7.421,18.796L50.601,11.452z"/>
	<path fill="#F8CB4F" stroke="#405767" stroke-width="2.5" stroke-miterlimit="10" d="M58.558,30.812
		c0-7.548-3.039-14.385-7.957-19.359L30.747,30.531l26.591,8.406C58.13,36.367,58.558,33.64,58.558,30.812z"/>
	<path fill="#32BDB3" stroke="#405767" stroke-width="2.5" stroke-miterlimit="10" d="M30.747,30.531l-19.85,19.077
		c5.025,5.379,12.177,8.744,20.12,8.744c12.384,0,22.854-8.17,26.321-19.415L30.747,30.531z"/>
	<g id="g24_2_" transform="translate(12.4136,29.4146)">
		<path fill="#662314" d="M1.151-13.227c0.617,0.618,2.118,0.117,3.352-1.117c1.233-1.233,1.735-2.734,1.117-3.351
			c-0.422-0.422-1.26-0.312-2.141,0.19c-5.214-4.316-13.67-5.77-14.054-5.833c-0.862-0.142-1.673,0.438-1.816,1.297
			s0.436,1.674,1.297,1.819c0.084,0.016,7.794,1.349,12.357,4.992C0.828-14.401,0.75-13.627,1.151-13.227z"/>
	</g>
	<g id="g28_2_" transform="translate(22,36.0005)">
		<path fill="#0E9E66" d="M0.085-26.355c6.186-1.509,11.093-8.331,11.093-8.331s-9.46-2.683-14.828-0.383
			c-5.367,2.3-8.472,7.069-7.851,8.521C-10.875-25.096-4.621-25.207,0.085-26.355z"/>
	</g>
</g>
<g id="g12_2_">
	<g>
		<defs>
			<rect id="SVGID_1_" x="4.687" y="-0.079" width="60" height="60"/>
		</defs>
		<clipPath id="SVGID_2_">
			<use xlink:href="#SVGID_1_"  overflow="visible"/>
		</clipPath>
	</g>
</g>
</svg>
