<?xml version="1.0" encoding="utf-8"?>
<!-- Generator: Adobe Illustrator 16.0.4, SVG Export Plug-In . SVG Version: 6.00 Build 0)  -->
<!DOCTYPE svg PUBLIC "-//W3C//DTD SVG 1.1//EN" "http://www.w3.org/Graphics/SVG/1.1/DTD/svg11.dtd">
<svg version="1.1" id="Layer_1" xmlns="http://www.w3.org/2000/svg" xmlns:xlink="http://www.w3.org/1999/xlink" x="0px" y="0px"
	 width="605.042px" height="107px" viewBox="0 0 605.042 107" enable-background="new 0 0 605.042 107" xml:space="preserve">
<g>
	<path fill="#AF7136" d="M568.625,4.445C567.367,2,564.087,0,561.337,0H43.167c-2.75,0-6.021,2.005-7.268,4.456L2.268,70.544
		C1.021,72.995,2.25,75,5,75.001l595,0.1c2.75,0.001,3.97-1.999,2.711-4.444L568.625,4.445z"/>
</g>
<g>
	<path fill="#915B27" d="M605,102c0,2.75-2.25,5-5,5H5c-2.75,0-5-2.25-5-5V80c0-2.75,2.25-5,5-5h595c2.75,0,5,2.25,5,5V102z"/>
</g>
<polygon fill="#AF7136" points="0,75 2.56,69.97 5.25,75 "/>
<polygon fill="#915B27" points="0,80.459 5.25,75 0,75 "/>
<polygon fill="#AF7136" points="602.062,69.396 597.459,75 599.062,75 604.981,74.986 "/>
<polygon fill="#AF7136" points="604.981,74.986 599.062,75 599.084,75 604.989,75 "/>
<polygon fill="#915B27" points="599.084,75 605,80.666 605.042,75.102 604.989,75 "/>
</svg>
